<svg width="32" height="33" viewBox="0 0 32 33" fill="none" xmlns="http://www.w3.org/2000/svg">
<circle cx="16" cy="17" r="16" fill="#121212"/>
<path d="M6.072 27L7.668 7.232H10.58L15.116 17.928C15.564 19.02 16.096 20.588 16.096 20.588H16.152C16.152 20.588 16.684 19.02 17.132 17.928L21.668 7.232H24.58L26.176 27H23.432L22.452 14.54C22.368 13.336 22.424 11.628 22.424 11.628H22.368C22.368 11.628 21.78 13.448 21.304 14.54L17.356 23.444H14.892L10.972 14.54C10.524 13.476 9.908 11.572 9.908 11.572H9.852C9.852 11.572 9.88 13.336 9.796 14.54L8.844 27H6.072Z" fill="#F6F3EF"/>
</svg>
