<svg width="166" height="133" viewBox="0 0 166 133" fill="none" xmlns="http://www.w3.org/2000/svg">
<g clip-path="url(#clip0_362_350)">
<path d="M7.06925 108.019L7.45779 109.43C6.35851 110.908 3.95148 110.652 2.72901 109.279C1.50654 107.906 1.26963 105.86 1.49706 104.004C1.93298 100.415 3.79985 97.224 5.62882 94.1559C8.09271 90.0082 10.5566 85.87 13.0205 81.7223C16.3088 76.1826 19.6825 70.5577 24.4113 66.2964C27.4816 63.5313 29.4717 63.8438 33.0254 63.9858C36.2664 64.1184 39.8674 62.8495 43.3548 62.9821C50.0926 63.2472 56.8304 63.5124 63.5587 63.7775C64.658 63.8249 65.8141 63.8817 66.7712 64.4404C67.88 65.0938 68.5623 66.3154 69.1593 67.4991C72.9026 74.8758 77.4323 86.2772 80.2279 97.1767C81.9905 104.061 83.0614 110.737 82.796 116.097C82.0758 130.803 61.4739 132.744 49.7799 131.087C43.7907 130.235 38.1711 127.385 32.1536 126.788C26.5245 126.229 20.4311 127.593 15.4939 124.724C10.3197 121.722 8.19695 114.743 9.08775 108.625C9.96906 102.508 13.2669 97.0914 16.7448 92.082C20.2226 87.0726 24.0132 82.1769 26.1549 76.4099C27.548 72.641 28.3535 68.3418 31.2723 65.6904C31.9451 65.0843 32.6842 64.6014 33.4613 64.2226" stroke="white" stroke-width="2" stroke-miterlimit="10"/>
<path d="M89.7711 82.8302C90.9083 80.5102 92.0644 78.1712 93.5427 76.069C98.7927 68.6354 107.919 64.8759 116.77 64.857C121.489 64.8475 126.161 65.785 130.795 66.7225C132.804 67.1297 134.841 67.5369 136.689 68.4554C138.139 69.1751 139.428 70.1789 140.698 71.2016C142.906 72.9914 145.133 74.9232 146.384 77.5367C147.076 78.9761 147.436 80.567 148.127 82.0064C148.687 83.1806 149.464 84.2317 150.193 85.2923C153.823 90.5763 156.647 96.4096 159.281 102.3C160.314 104.61 161.319 106.93 162.323 109.25C163.29 111.485 164.266 113.758 164.522 116.192C164.768 118.625 164.171 121.286 162.409 122.905C160.665 124.506 158.173 124.799 155.851 125.017C152.733 125.311 149.615 125.595 146.497 125.888C133.761 127.072 120.958 128.265 108.193 127.347C104.213 127.063 100.252 126.57 96.2909 126.087C92.5856 125.633 88.7855 125.15 85.4782 123.36C84.6159 122.896 83.763 122.318 83.2702 121.447C82.8911 120.784 82.749 119.998 82.6163 119.231C81.6118 113.275 79.7449 105.273 81.5834 99.3262C83.3271 93.6824 87.184 88.1048 89.7711 82.8302Z" stroke="white" stroke-width="2" stroke-miterlimit="10"/>
<path d="M82.9953 63.5881C92.993 64.715 104.242 62.0067 114.258 62.3381C122.522 62.6128 130.738 64.6392 138.992 64.0332C142.375 63.787 145.701 63.0862 149.056 62.6033C151.34 62.2719 154.638 62.6128 156.609 61.1166C160.219 58.3799 158.713 50.2076 158.76 46.2683C158.817 41.3441 158.741 35.9843 155.765 32.1681C153.671 29.4882 150.468 28.0488 147.322 26.9788C141.683 25.0754 135.77 24.0622 129.847 23.9769C126.36 23.9296 122.673 24.1569 119.603 22.4429C114.182 19.4126 112.932 11.7991 108.487 7.35785C104.649 3.51321 99.0011 2.56625 93.7132 1.97914C84.9948 1.01325 75.4425 0.738629 68.3257 6.07946C65.1984 8.42791 62.6871 11.7707 59.124 13.2763C56.3758 14.4411 53.3149 14.3843 50.3771 14.8293C46.2264 15.4638 42.2747 17.1304 38.5126 19.0812C34.9778 20.9183 31.5189 23.0394 28.7423 25.975C23.7482 31.2685 21.4548 38.6453 19.3226 45.738C18.0149 50.1035 16.9819 55.6242 20.2892 58.6166C23.3312 61.3628 27.9273 60.0654 31.9264 59.6109C39.3939 58.7492 46.814 61.4101 54.3289 61.7037C58.7544 61.8836 63.2557 60.6241 67.6054 61.4859C72.5806 62.4707 82.9763 63.5786 82.9763 63.5786" stroke="white" stroke-width="2" stroke-miterlimit="10"/>
</g>
<defs>
<clipPath id="clip0_362_350">
<rect width="166" height="133" fill="white"/>
</clipPath>
</defs>
</svg>
