<svg width="552" height="132" viewBox="0 0 552 132" fill="none" xmlns="http://www.w3.org/2000/svg">
<path d="M74.1251 36.1562C72.4026 36.7567 72.778 39.8849 72.5572 42.1194C72.4136 43.6136 71.8394 44.9683 71.3315 46.3369C68.7035 53.4731 67.8202 61.4054 66.981 69.1981C66.2632 75.7897 65.5455 82.4511 65.9872 89.0847C66.3847 95.0897 67.7208 101.011 67.522 107.03C67.3343 112.979 65.7884 119.655 68.6152 124.431C70.3157 127.294 73.2639 128.62 76.1017 128.704C78.9394 128.788 81.711 127.796 84.4384 126.805C85.8076 126.302 87.2651 125.744 88.1926 124.375C88.8331 123.425 89.1422 122.196 89.4293 121.009C90.5998 116.233 91.7813 111.317 91.5715 106.332C91.4611 103.678 90.9531 101.067 90.8206 98.4135C90.3569 89.5455 94.0118 80.915 93.4265 72.061C93.1284 67.4943 93.1394 62.7321 91.3727 58.7381C86.183 48.9903 88.038 42.7618 85.8738 36.5332C85.5757 35.2205 82.3625 35.1227 81.3245 34.7736C80.7283 34.5781 80.0989 34.7736 79.5026 34.9691C77.504 35.6395 74.1251 36.1841 74.1251 36.1841" stroke="white" stroke-width="2" stroke-miterlimit="10"/>
<path d="M109.072 34.3407C108.52 34.201 106.522 34.0893 105.981 33.8379C104.943 33.3631 103.816 33.3491 102.712 33.3491C100.592 33.3491 98.472 33.3491 96.3629 33.6983C95.6121 33.824 94.8502 34.0055 94.0883 34.0195C93.5252 34.0195 92.962 33.9496 92.4099 33.9078C87.5735 33.5447 82.5715 35.821 77.9891 33.8519C76.8297 33.3491 75.604 32.3157 75.5488 30.7795C75.5267 30.0813 75.7586 29.3551 75.5819 28.6847C75.4384 28.1401 75.0409 27.763 74.8973 27.2184C74.82 26.9391 74.809 26.6318 74.82 26.3246C74.8863 23.9365 76.123 21.6742 77.8455 20.7245C79.6675 19.733 81.7654 20.1659 83.7088 19.705C84.3272 19.5514 84.9345 19.314 85.5639 19.2163C86.392 19.0906 87.2423 19.2163 88.0815 19.2721C89.3734 19.3838 90.6763 19.3559 91.9682 19.2023C92.9841 19.0766 94.011 18.8671 95.0269 18.9509C95.7667 19.0068 96.5065 19.2302 97.2463 19.3559C99.543 19.7469 101.873 19.1883 104.181 18.8951C106.488 18.6018 108.929 18.5739 110.994 19.9145C111.479 20.2357 111.943 20.6268 112.451 20.8642C112.727 21.0038 113.025 21.0876 113.257 21.339C113.577 21.6742 113.688 22.2188 113.787 22.7355C114.085 24.2577 114.372 25.8777 114.03 27.372C113.721 28.6987 112.948 29.774 112.164 30.7376C110.949 32.204 109.58 34.3546 107.791 34.0055C106.455 33.7541 105.141 33.4469 103.794 33.3072C100.747 33.014 97.2132 33.2095 94.7287 35.7512C91.7916 38.7537 91.7143 43.9628 92.2664 48.292C92.7081 51.7694 94 55.0372 94.2208 58.5565C94.4085 61.5032 93.8233 64.4359 93.3374 67.3267C91.4161 78.7364 90.8861 90.5091 91.7916 102.114C91.9903 104.628 92.2553 107.156 92.2222 109.683C92.167 114.46 91.1953 119.794 93.4589 123.621C95.855 127.671 100.548 127.782 104.545 127.489C106.952 127.322 109.348 127.14 111.755 126.972C116.989 126.595 123.062 125.604 125.735 119.906C127.314 116.526 127.225 112.295 126.53 108.468C125.834 104.642 124.597 100.997 123.99 97.1566C122.709 88.931 124.454 80.3424 123.394 72.0609C122.72 66.824 120.942 61.8802 120.434 56.6153C120.103 53.1659 120.324 49.6606 119.96 46.2251C119.595 42.7897 118.491 39.2285 116.205 37.3013C115.079 36.3517 113.754 35.8769 112.451 35.416C111.358 35.025 110.221 34.6619 109.061 34.3407" stroke="white" stroke-width="2" stroke-miterlimit="10"/>
<path d="M66.395 67.4105C66.6048 61.573 64.1204 58.4448 64.3302 52.6073C64.3964 50.6382 64.6614 46.8396 64.2308 44.9403C63.8002 43.0411 65.2577 40.3597 63.767 39.7871C62.5966 39.3403 61.3488 39.6754 60.1563 40.0246C58.1687 40.5971 56.1812 41.1697 54.1936 41.7283C53.5642 41.9099 52.9238 42.1054 52.4269 42.6081C51.4883 43.5578 51.3669 45.2755 51.3227 46.7977C51.146 52.2582 50.9694 57.7186 50.7927 63.179C50.7485 64.408 50.7154 65.6648 51.0246 66.824C51.2454 67.6758 51.654 68.4719 51.7534 69.3657C51.93 71.0555 50.9804 72.5497 50.5056 74.1418C49.5118 77.4795 50.616 81.1524 50.881 84.6996C51.2565 89.5734 50.0087 94.3915 48.6837 98.9861C48.3303 100.187 47.977 101.43 47.988 102.715C47.9991 104.014 48.4076 105.243 48.6726 106.499C49.3462 109.614 49.2358 112.979 48.3524 116.01C47.8114 117.853 46.9722 119.738 47.2813 121.666C47.5795 123.509 48.8935 124.864 50.3069 125.436C51.7202 126.009 53.244 125.911 54.7236 125.813C57.2191 125.66 59.7257 125.492 62.2212 125.339C62.8174 125.297 63.4579 125.241 63.9327 124.78C64.3633 124.347 64.5731 123.649 64.7277 122.978C65.5006 119.738 65.6994 116.331 65.7877 112.951C66.0417 102.491 65.2467 92.0034 66.0638 81.5853C66.2846 78.7503 66.6269 75.9154 66.6269 73.0665C66.6269 70.5108 66.3177 69.9662 66.395 67.4245" stroke="white" stroke-width="2" stroke-miterlimit="10"/>
<path d="M46.7742 43.9488C46.0675 54.2412 45.7914 64.5895 45.9571 74.9238C46.0565 80.9289 45.8135 85.2581 45.0185 91.1794C43.8922 99.6005 43.9585 112.099 43.1635 119.208C42.9537 121.093 44.7314 121.959 46.1448 121.247C46.7742 120.926 47.1607 120.129 47.4919 119.375C48.3532 117.448 49.2366 115.381 49.104 113.175C49.0157 111.806 48.5519 110.535 48.2869 109.209C47.5361 105.354 48.6072 101.36 49.3249 97.4917C50.5064 91.1375 50.7714 84.504 50.0757 78.0381C49.9212 76.5578 49.7114 75.0495 49.9653 73.5971C50.2966 71.6699 51.3897 70.022 51.5885 68.0669C51.8314 65.5391 50.5395 63.2349 50.0647 60.749C49.6561 58.5984 49.877 56.35 50.0978 54.1434C50.3187 51.9649 51.6106 46.9513 51.0474 44.8845C50.5726 43.1528 46.7742 42.8874 46.7742 43.9348V43.9488Z" stroke="white" stroke-width="2" stroke-miterlimit="10"/>
<path d="M55.155 37.3572C56.2924 38.5442 56.2924 38.5582 58.0259 39.033C60.5214 39.7313 63.1273 39.2704 65.3799 37.7342C65.6339 37.5667 65.8878 37.3711 66.0314 37.0639C66.197 36.7008 66.1749 36.2679 66.1528 35.8489C66.0093 33.5446 65.8658 31.2264 65.7333 28.9221C65.7001 28.4054 65.667 27.8608 65.4903 27.3999C65.1039 26.3944 64.1432 25.9475 63.2598 25.8917C62.3765 25.8358 61.5042 26.1151 60.6208 26.1151C58.291 26.1151 56.0605 24.2438 53.7748 24.7884C52.8031 25.0258 51.9308 25.6822 51.0805 26.3386C49.0378 27.8887 47.006 29.4528 44.9633 31.003C44.6431 31.2404 44.3118 31.5057 44.1462 31.9386C43.9916 32.3436 44.0137 32.8045 44.0357 33.2514C44.2345 36.4355 43.7487 38.3487 43.8922 41.435C43.8922 41.6585 44.0468 41.8121 44.2235 41.8121C47.6244 41.5887 52.2841 40.3876 55.1771 37.3711C53.1233 34.3407 55.3648 29.4528 54.2275 25.7241L55.1109 24.4393" stroke="white" stroke-width="2" stroke-miterlimit="10"/>
<path d="M44.1016 41.7842C44.3997 42.0635 44.8193 42.4685 45.1726 42.5942C45.9235 42.8595 46.6854 43.0969 47.4473 43.3064C47.5246 43.3204 47.624 43.3343 47.646 43.2366" stroke="white" stroke-width="2" stroke-miterlimit="10"/>
<path d="M63.5469 39.7452C64.4413 40.0106 65.3798 39.8709 66.2963 39.8709C66.5724 39.8709 66.8595 39.8989 67.1134 40.0385C67.4778 40.248 67.7207 40.7088 67.8422 41.1837C67.9637 41.6585 67.9747 42.1752 67.9858 42.678C68.0078 43.474 68.0189 44.256 68.041 45.0521C68.052 45.6945 68.0741 46.3229 68.0851 46.9653C68.0851 47.4122 68.1072 47.8591 68.1514 48.306C68.2287 49.0741 68.4054 49.8282 68.3612 50.5823C68.3391 51.099 68.2176 51.6018 68.1183 52.1045C67.7207 54.2273 67.776 59.6318 67.8201 61.8104" stroke="white" stroke-width="2" stroke-miterlimit="10"/>
<path d="M43.5386 113.915C43.5386 112.728 42.2909 112.351 41.3523 112.337C37.333 112.295 33.3027 112.253 29.2834 112.211C23.5526 112.155 17.7887 112.099 12.1131 113.077C9.80536 113.482 7.46446 114.069 5.46586 115.577C3.46726 117.085 1.83305 119.641 1.66742 122.587C1.64534 122.992 1.65638 123.439 1.84409 123.774C2.14223 124.333 2.74954 124.403 3.27955 124.417C15.1828 124.724 27.1082 123.83 38.901 121.763C40.5021 121.484 42.3019 121.023 43.1742 119.292C43.373 119.892 43.5718 120.479 43.7705 121.079" stroke="white" stroke-width="2" stroke-miterlimit="10"/>
<path d="M134.613 34.592C132.438 38.9632 130.472 44.0046 131.146 49.1159C131.521 51.9369 132.681 54.4786 133.233 57.2577C134.812 65.0504 131.51 72.9128 129.92 80.6915C127.425 92.8553 129.103 105.675 130.792 118.049C131.035 119.808 131.289 121.61 132.062 123.104C133.741 126.33 137.186 127.028 140.233 127.35C148.957 128.257 157.713 128.592 166.458 128.327C167.286 128.299 168.125 128.271 168.898 127.88C171.029 126.791 171.769 123.495 172.023 120.618C173.503 104 168.159 87.7579 166.326 71.1951C165.807 66.4888 165.575 61.7266 165.508 56.9645C165.42 51.0432 165.597 45.0381 164.36 39.3263C164.194 38.5582 163.996 37.7761 163.576 37.2035C163.145 36.617 162.527 36.2958 161.931 36.0305C155.582 33.1676 148.658 33.405 141.923 33.6703C140.09 33.7402 138.224 33.8239 136.457 34.4664C134.712 35.1088 132.835 37.1058 133.465 39.2565C133.155 39.5637 132.659 39.5497 132.36 39.2146" stroke="white" stroke-width="2" stroke-miterlimit="10"/>
<path d="M162.196 35.0669C161.865 32.1761 161.854 29.2433 162.152 26.3525C162.218 25.752 162.306 25.1236 162.627 24.6767C163.024 24.1041 163.687 23.9784 164.283 23.8946C168.324 23.3221 172.399 23.1545 176.462 23.4198C177.014 23.4477 177.589 23.5176 178.03 23.9226C178.439 24.2996 178.66 24.9001 178.858 25.4727C180.758 30.8354 182.679 37.4829 183.076 43.3343" stroke="white" stroke-width="2" stroke-miterlimit="10"/>
<path d="M195.134 31.8828C190.816 30.9192 186.532 34.6758 184.39 39.5218C182.259 44.3678 181.806 50.0656 181.464 55.5959C180.083 77.9264 179.708 100.355 180.326 122.727C180.348 123.635 180.382 124.57 180.68 125.408C181.541 127.824 184.07 128.229 186.168 128.285C196.911 128.592 207.655 128.9 218.399 129.207C219.271 122.546 219.934 115.828 220.342 109.097C221.248 94.168 220.895 79.1693 220.552 64.1985C220.486 61.3775 220.42 58.5425 220.354 55.7216C220.21 49.4372 220.066 43.1249 219.338 36.8963C219.26 36.1981 219.161 35.4579 218.819 34.8993C218.267 33.9915 217.273 33.796 216.378 33.6564C214.435 33.3631 212.492 33.0838 210.548 32.7905C204.21 31.8549 197.817 30.9052 191.479 31.7431C191.622 32.0643 191.666 32.4554 191.578 32.8185" stroke="white" stroke-width="2" stroke-miterlimit="10"/>
<path d="M171.449 124.193C171.449 123.816 171.858 123.635 172.145 123.746C172.432 123.858 172.686 124.11 172.973 124.193C173.183 124.249 173.393 124.221 173.602 124.193C175.899 123.788 178.163 123.02 180.305 121.903" stroke="white" stroke-width="2" stroke-miterlimit="10"/>
<path d="M222.85 33.3631C223.115 36.9941 224.296 40.4156 224.683 44.0326C224.959 46.5743 224.848 49.1578 224.738 51.7135C224.561 55.6936 224.385 59.6877 224.208 63.6678C224.076 66.6564 223.943 69.6449 223.612 72.6196C223.214 76.1947 222.552 79.7 222.232 83.289C221.359 93.0089 223.104 102.84 222.43 112.574C222.276 114.865 221.967 117.197 221.05 119.166C220.763 119.78 220.421 120.353 220.034 120.87" stroke="white" stroke-width="2" stroke-miterlimit="10"/>
<path d="M186.51 26.4642C185.229 30.2907 184.511 34.4245 184.412 38.5861C184.456 38.4185 184.489 38.237 184.534 38.0694" stroke="white" stroke-width="2" stroke-miterlimit="10"/>
<path d="M237.491 119.166C237.469 122.001 237.634 125.394 239.567 126.833C240.77 127.727 242.261 127.517 243.652 127.405C248.599 127.014 253.546 128.174 258.493 128.592C263.44 129.011 268.662 128.579 272.914 125.339C273.587 124.822 274.228 124.235 274.713 123.467C275.343 122.434 275.641 121.149 275.818 119.864C276.646 113.845 275.056 107.784 274.239 101.765C273.742 98.0783 273.532 94.3216 273.366 90.5929C272.615 73.8345 272.649 57.0343 273.466 40.2759C273.554 38.4465 273.631 36.5193 272.936 34.9133C271.887 32.5252 269.513 31.7292 267.371 31.3521C260.635 30.179 253.8 30.9611 247.031 31.7292C245.198 31.9386 242.062 31.5057 240.45 32.7626C238.937 33.9357 238.849 37.036 238.529 39.0191C237.513 45.3453 236.939 51.7554 236.652 58.1934C236.067 71.2929 236.652 84.4063 237.082 97.4918C237.325 104.712 237.469 111.932 237.469 119.166H237.491Z" stroke="white" stroke-width="2" stroke-miterlimit="10"/>
<path d="M301.59 46.4626C300.806 61.6289 300.022 76.7952 299.238 91.9475C299.039 95.8438 298.829 99.7402 298.631 103.636C298.333 109.474 298.023 115.311 297.725 121.135C297.67 122.154 297.637 123.244 298.101 124.082C298.587 124.961 299.492 125.283 300.331 125.52C313.085 129.193 326.611 128.551 339.111 123.691C339.773 123.439 340.48 123.118 340.844 122.378C341.209 121.666 341.153 120.758 341.087 119.92C340.093 107.631 338.636 95.397 336.714 83.289C336.151 79.7419 335.544 76.2086 335.257 72.6196C334.97 69.1701 334.981 65.7067 334.749 62.2573C334.506 58.6682 334.009 55.1071 333.512 51.5599C332.883 47.0351 332.254 42.5243 331.624 37.9996C331.447 36.7706 331.26 35.4858 330.63 34.5222C329.648 33.0419 327.958 32.8045 326.434 32.7067C320.372 32.3297 314.288 32.5252 308.248 33.2933C306.073 33.5726 303.776 33.1676 302.838 35.9746C301.789 39.1168 301.767 43.069 301.601 46.4346L301.59 46.4626Z" stroke="white" stroke-width="2" stroke-miterlimit="10"/>
<path d="M253.104 16.1858C252.519 15.9065 251.801 16.1579 251.404 16.7723C252.475 15.0406 254.198 14.105 255.92 13.7838C257.643 13.4626 259.398 13.672 261.132 13.8396C275.873 15.2641 290.702 13.6022 305.488 13.9094C309.01 13.9793 312.554 14.1748 316.033 14.887C316.85 15.0546 317.711 15.278 318.352 15.9344C319.069 16.6606 319.423 17.8197 319.677 18.937C320.416 22.1629 320.626 25.5705 320.295 28.8942C320.207 29.774 320.052 30.7097 319.5 31.2683C319.091 31.6733 318.55 31.7711 318.042 31.8549C313.515 32.609 308.999 33.3631 304.472 34.1172C300.066 34.8574 295.627 35.5836 291.188 35.2205C289.046 35.0389 286.915 34.606 284.762 34.5781C282.841 34.5502 280.919 34.8434 278.998 34.8015C277.397 34.7596 275.807 34.4664 274.217 34.1871C267.879 33.0419 261.552 31.9107 255.213 30.7656C254.418 30.6259 253.535 30.4164 253.093 29.5785C252.873 29.1596 252.795 28.6289 252.729 28.1261C252.221 24.3555 252.155 20.9759 251.978 17.1913C251.945 16.5349 251.879 15.8087 251.492 15.3618C251.04 14.8451 250.333 14.9149 249.726 15.0267C242.062 16.3115 234.311 16.2556 226.582 16.1998C224.936 16.1998 223.291 16.1718 221.646 16.1579C219.526 16.1439 217.395 16.1299 215.275 15.9623C210.946 15.6272 206.198 14.8312 202.598 17.9035C202.201 18.2387 201.792 18.6297 201.318 18.6297C200.898 18.6297 200.534 18.3225 200.158 18.0851C198.215 16.8701 195.642 17.8058 194.35 20.0123C193.058 22.2188 193.025 25.4169 194.118 27.791C194.648 28.9361 195.41 29.9137 196.315 30.598C197.939 31.799 199.882 32.0224 201.759 32.1621C207.048 32.5671 212.348 32.6788 217.649 32.7766C218.896 32.8045 220.144 32.8185 221.392 32.8464C223.059 32.8743 224.727 32.9162 226.383 32.7067C227.774 32.5392 229.143 32.218 230.524 31.9666C235.128 31.1147 239.832 31.0728 244.448 31.8269C246.082 32.0923 247.76 32.4554 249.35 31.9107C250.94 31.3661 252.42 29.6344 252.343 27.5535C251.868 27.5675 251.393 27.5954 250.918 27.6094" stroke="white" stroke-width="2" stroke-miterlimit="10"/>
<path d="M388.446 36.1981C382.063 33.2793 374.919 35.011 368.548 37.9437C367.455 38.4465 366.34 39.0051 365.467 39.9826C363.91 41.7143 363.369 44.4515 362.905 47.0072C359.251 67.5362 356.313 88.3165 355.165 109.306C355.055 111.429 354.955 113.58 355.309 115.647C355.662 117.714 356.534 119.738 357.97 120.842C358.875 121.54 359.924 121.819 360.973 122.001C365.6 122.797 370.293 121.666 374.963 121.917C380.981 122.252 387.143 124.864 392.873 122.559C393.127 122.462 393.392 122.336 393.58 122.085C393.856 121.722 393.889 121.163 393.9 120.66C394.044 116.163 394.187 111.667 394.331 107.17C394.993 86.3055 395.634 65.2598 392.873 44.689C392.41 41.1976 391.526 37.2175 388.965 35.807C388.114 35.3322 387.176 35.2205 386.248 35.1088C384.934 34.9551 383.62 34.8015 382.306 34.6339C381.997 34.592 381.666 34.5641 381.379 34.7177C380.374 35.2624 380.341 37.7761 379.248 37.5946" stroke="white" stroke-width="2" stroke-miterlimit="10"/>
<path d="M319.091 32.595C321.189 31.2823 323.618 33.3352 325.948 33.3491C326.997 33.3491 328.002 32.9441 329.04 32.7347C331.127 32.3157 333.258 32.7067 335.356 33.0419C342.577 34.215 349.876 34.7317 357.153 34.5781C359.461 34.5362 361.779 34.4245 364.087 34.62C368.316 34.997 372.634 36.4215 376.708 34.9831C377.326 34.7596 377.945 34.4664 378.398 33.8938C378.806 33.3771 379.049 32.6648 379.27 31.9805C380.253 28.9221 381.136 25.5006 380.231 22.4003C379.193 18.8531 375.979 16.9259 372.998 17.0097C371.209 17.0656 369.476 17.694 367.698 17.9594C363.005 18.6576 358.345 16.7584 353.663 15.9763C350.759 15.4875 347.811 15.4316 344.874 15.3758C337.553 15.2361 330.221 15.1104 322.9 14.9708C321.984 14.9568 321.023 14.9429 320.184 15.4037C319.5 15.7808 318.914 16.4651 318.572 17.317C318.263 16.8142 317.954 16.3115 317.645 15.8087" stroke="white" stroke-width="2" stroke-miterlimit="10"/>
<path d="M448.073 123.314C448.205 122.825 448.216 122.266 448.216 121.736C448.216 118.524 448.205 115.311 448.194 112.099C448.194 109.767 448.194 107.435 447.951 105.117C447.211 97.785 444.175 90.942 444.175 83.5544C444.175 80.2446 444.793 76.9907 444.892 73.6949C444.992 70.5527 444.627 67.3826 445.069 64.2823C445.345 62.3271 445.953 60.4698 446.262 58.5146C446.869 54.7021 446.339 50.7499 445.809 46.9234C445.422 44.1443 444.959 38.7397 442.905 36.9941C442.022 36.24 441.017 36.6449 439.979 36.4774C438.4 36.226 436.942 35.2903 435.352 35.1367C433.751 34.9831 432.183 35.6394 430.593 35.8629C426.485 36.4355 421.991 34.2289 418.381 36.7567C417.95 37.0639 417.53 37.427 417.056 37.5248C416.691 37.5946 416.327 37.5248 415.962 37.5248C414.693 37.5248 413.544 38.6001 412.86 39.9408C412.175 41.2814 411.877 42.8874 411.634 44.4655C409.823 56.5036 410.938 69.0863 408.597 80.9708C407.416 86.948 405.373 93.1625 406.82 99.0419C407.162 100.438 407.692 101.765 407.825 103.218C408.034 105.536 407.195 107.756 406.632 109.977C405.793 113.287 405.539 116.848 405.914 120.297C406.025 121.275 406.19 122.294 406.709 123.02C407.394 123.984 408.487 124.221 409.492 124.389C418.833 125.911 428.274 126.065 437.693 126.037C440.586 126.037 443.534 125.995 446.306 124.948C447.432 124.529 447.763 123.649 448.823 123.607C450.126 123.537 452.081 124.892 453.351 125.367C456.487 126.512 459.667 127.489 462.913 127.95C465.298 128.285 467.705 128.355 470.112 128.383C471.89 128.411 473.9 128.285 475.103 126.623C476.274 125.003 476.208 122.532 476.086 120.353C475.402 108.51 474.916 96.6538 474.629 84.7973C474.573 82.5489 474.529 80.2865 474.783 78.0521C475.081 75.4964 475.766 73.0525 476.439 70.6225C477.179 67.9831 477.919 65.3297 478.67 62.6902C479.045 61.3356 479.432 59.953 479.465 58.5286C479.498 56.7829 479.001 55.1071 478.813 53.3754C478.526 50.7918 478.924 48.1524 478.714 45.5548C478.648 44.8286 478.537 44.0745 478.184 43.4879C477.897 43.0131 477.488 42.6919 477.091 42.3847C475.578 41.2116 474.054 40.0385 472.365 39.3542C469.593 38.237 466.612 38.5582 463.719 38.8794L458.22 39.4939C457.436 39.5777 456.63 39.6754 455.901 40.0664C455.139 40.4714 454.499 41.1976 453.936 41.9657C451.65 45.094 450.391 49.2277 449.751 53.4033C449.111 57.5789 449.055 61.8663 448.89 66.1117C448.503 76.055 447.52 85.9425 445.964 95.7042" stroke="white" stroke-width="2" stroke-miterlimit="10"/>
<path d="M518.444 117.923C518.367 115.158 518.278 112.393 518.201 109.642C518.135 107.337 518.068 105.005 518.455 102.743C518.819 100.592 519.592 98.581 519.868 96.4164C520.166 94.0982 519.89 91.7101 520.133 89.3779C520.354 87.2971 520.972 85.3001 521.028 83.2053C521.083 81.0546 520.531 78.9458 520.222 76.8371C519.217 69.9661 520.696 62.6064 518.775 56.0567C518.632 55.554 518.455 55.0512 518.168 54.6462C517.814 54.1714 517.329 53.9061 516.843 53.6966C514.8 52.8726 512.492 53.1799 510.637 54.5066C509.058 55.6378 507.534 57.551 505.746 57.1041C504.962 56.9086 504.277 56.2522 503.493 56.0427C502.72 55.8333 501.914 56.0846 501.141 56.3221C498.911 57.0203 496.68 57.7186 494.45 58.4168C493.953 58.5705 493.445 58.7381 493.025 59.1151C492.142 59.8972 491.888 61.4473 492.042 62.788C492.197 64.1287 492.661 65.3855 492.959 66.6983C493.798 70.4689 493.136 74.4769 492.716 78.3733C491.833 86.529 492.054 94.8244 492.274 103.05C492.341 105.578 492.44 108.231 493.467 110.41C494.218 112.016 495.432 113.231 496.128 114.879C496.559 115.898 496.78 117.071 496.757 118.23" stroke="white" stroke-width="2" stroke-miterlimit="10"/>
<path d="M474.573 126.442C476.903 128.02 479.63 128.215 482.27 128.383C490.385 128.886 498.501 129.375 506.617 129.877C507.39 129.919 508.196 129.961 508.914 129.598C510.592 128.732 511.122 126.121 511.431 123.872C511.542 123.104 511.641 122.252 511.343 121.568C510.968 120.674 510.084 120.353 509.289 120.213C504.718 119.431 500.025 121.791 495.498 120.646C494.592 120.423 493.709 120.06 492.793 119.976C491.788 119.878 490.783 120.129 489.789 120.353C485.251 121.358 480.646 121.763 476.053 122.182C476.517 122.434 476.638 123.341 476.263 123.774" stroke="white" stroke-width="2" stroke-miterlimit="10"/>
<path d="M542.791 114.893C540.715 115.116 538.705 115.926 536.662 116.471C530.711 118.077 524.483 117.476 518.565 119.25C517.394 119.599 516.191 120.074 515.329 121.135C514.468 122.196 514.048 123.984 514.689 125.269C515.252 126.428 516.423 126.819 517.472 127.098C525.455 129.207 533.648 130.045 541.797 129.584C543.464 129.486 545.176 129.319 546.655 128.341C548.676 126.986 550.752 122.727 550.288 119.725C549.67 115.689 545.463 114.613 542.802 114.893H542.791Z" stroke="white" stroke-width="2" stroke-miterlimit="10"/>
<path d="M518.4 118.454C518.377 117.769 517.571 117.741 517.041 117.909C507.888 121.009 498.204 117.63 488.741 118.202C487.835 118.258 486.864 118.384 486.179 119.124C485.494 119.864 485.296 121.428 486.035 122.099" stroke="white" stroke-width="2" stroke-miterlimit="10"/>
<path d="M511.377 126.121L511.443 125.967C512.327 125.799 513.232 125.771 514.126 125.911C514.038 126.107 513.961 126.316 513.872 126.512" stroke="white" stroke-width="2" stroke-miterlimit="10"/>
<path d="M492.627 73.9183C492.671 72.9268 492.704 71.8794 492.351 70.9856C492.075 70.2874 491.6 69.7567 491.302 69.0724C491.004 68.3741 490.916 67.5502 490.662 66.824C490.098 65.2459 488.818 64.2404 488.177 62.7182C487.735 61.6708 487.57 60.358 486.797 59.7017C486.421 59.3944 485.969 59.2967 485.516 59.2408C484.39 59.0872 483.241 59.0872 482.104 59.1011C481.508 59.1011 480.889 59.1012 480.337 59.4084C479.785 59.7156 479.321 60.372 479.344 61.1261C479.399 61.2378 479.465 61.3496 479.52 61.4613" stroke="white" stroke-width="2" stroke-miterlimit="10"/>
<path d="M479.057 46.0575L478.185 46.1832C479.024 46.1413 479.841 45.8062 480.658 45.5688C482.966 44.8984 485.362 44.8984 487.725 44.9124C492.992 44.9264 498.248 44.9543 503.515 44.9683C504.442 44.9683 505.458 45.0241 506.121 45.8341C506.651 46.4905 506.816 47.468 506.949 48.4037C507.137 49.7025 507.324 50.9873 507.523 52.2861C507.634 53.0123 507.733 53.7943 507.501 54.4786C506.982 56.0288 505.271 56.0008 503.946 55.8612C501.914 55.6377 499.86 55.7495 497.861 56.1824C496.282 56.5315 494.737 57.0622 493.18 57.537C488.443 58.9475 483.584 59.6737 478.715 59.6877C479.388 59.2268 480.294 59.3385 480.879 59.967" stroke="white" stroke-width="2" stroke-miterlimit="10"/>
<path d="M393.879 119.236C393.703 119.306 393.791 119.655 393.923 119.822C395.9 122.462 399.047 122.909 401.929 123.118C403.629 123.23 405.374 123.314 406.986 122.643" stroke="white" stroke-width="2" stroke-miterlimit="10"/>
<path d="M413.335 38.237C413.577 36.3936 413.831 34.4943 413.577 32.6509C413.324 30.8074 412.451 28.978 411.071 28.3076C410.32 27.9445 409.492 27.9445 408.686 27.9445C401.354 27.9725 393.934 28.0144 386.823 30.3047C386.039 30.5561 385.222 30.8633 384.658 31.5895C384.095 32.3157 383.886 33.6005 384.427 34.3546" stroke="white" stroke-width="2" stroke-miterlimit="10"/>
<path d="M354.481 116.61C353.531 112.239 354.613 107.603 354.503 103.064C354.448 100.606 354.039 98.19 353.84 95.7461C353.112 86.5988 355.408 77.5353 356.093 68.3881C356.546 62.4109 356.303 56.336 357.219 50.4287C357.528 48.4177 357.981 46.4346 358.092 44.3817C358.18 42.7618 358.047 41.1138 358.345 39.5218C358.82 36.9801 360.477 34.8434 362.475 34.1731C362.674 34.4943 362.884 34.8015 363.083 35.1227" stroke="white" stroke-width="2" stroke-miterlimit="10"/>
<path d="M379.27 31.785C386.524 30.4863 393.768 29.2015 401.023 27.9027C401.531 27.8189 402.049 27.7072 402.458 27.3161C402.977 26.8134 403.176 25.9475 403.341 25.1376C403.982 22.0512 404.622 18.9789 405.263 15.8925C405.484 14.8451 405.693 13.7 405.384 12.6945C404.854 11.0186 403.198 10.5298 401.784 10.3343C388.225 8.36523 374.257 11.2281 361.879 18.504C361.812 19.1185 361.746 19.719 361.669 20.3335" stroke="white" stroke-width="2" stroke-miterlimit="10"/>
<path d="M298.057 35.6674C297.836 35.9048 297.836 35.0948 298.112 35.2065C298.388 35.3182 298.399 35.793 298.377 36.1561C297.814 42.636 298.432 49.1718 298.653 55.6936C299.117 68.7093 298.024 81.7668 298.653 94.7685" stroke="white" stroke-width="2" stroke-miterlimit="10"/>
<path d="M300.099 13.1134C300.232 13.2252 299.912 13.3089 299.879 13.1134C299.779 12.5967 300.353 12.3314 300.773 12.3034C307.376 11.9124 313.979 11.5214 320.593 11.1164C321.963 11.0326 323.597 11.1164 324.359 12.5548C324.767 13.3369 324.833 14.3982 325.386 15.0267" stroke="white" stroke-width="2" stroke-miterlimit="10"/>
<path d="M227.421 15.8506C227.421 16.116 227.796 16.088 227.862 15.8367C227.929 15.5853 227.785 15.3199 227.642 15.1244C226.537 13.6301 224.804 13.2391 223.192 12.9458C219.426 12.2476 215.672 11.5493 211.907 10.865C210.482 10.5997 209.058 10.3343 207.667 9.88744C206.054 9.37072 204.498 8.60263 202.907 7.9323C201.13 7.19214 199.297 6.57766 197.442 6.32629C191.534 5.53027 185.318 8.30936 179.763 5.65595C178.527 5.06941 177.389 4.23149 176.175 3.57512C171.648 1.15913 166.127 1.66188 162.118 5.25096C161.5 5.80957 160.915 6.43801 160.429 7.17817C159.402 8.75625 158.894 10.7952 158.706 12.8202C158.452 15.5992 158.762 18.4621 159.601 21.0457C159.789 21.6043 159.998 22.1769 160.363 22.5819C161.147 23.4617 162.328 23.3221 163.366 23.1964C171.349 22.1769 179.355 24.2438 187.283 25.8358C189.602 26.2967 191.965 26.7296 194.306 26.4922" stroke="white" stroke-width="2" stroke-miterlimit="10"/>
<path d="M237.259 102.826C233.195 108.133 227.387 111.345 224.439 117.713C224.13 118.384 223.887 119.347 224.362 119.85C224.693 120.199 225.19 120.088 225.609 119.962C229.574 118.831 233.725 118.831 237.689 119.962" stroke="white" stroke-width="2" stroke-miterlimit="10"/>
<path d="M274.194 102.575C277.385 101.486 280.51 104.321 283.768 105.075C285.336 105.438 286.937 105.298 288.527 105.34C291.718 105.41 294.909 106.192 297.89 107.645C298.387 107.882 299.083 108.05 299.315 107.449" stroke="white" stroke-width="2" stroke-miterlimit="10"/>
<path d="M276.314 117.239C277.937 118.132 279.262 119.711 280.543 121.261C281.095 121.931 281.647 122.587 282.089 123.369C280.289 124.431 278.379 125.199 276.436 125.674C276.138 125.744 275.795 125.799 275.541 125.576C275.354 125.408 275.265 125.101 275.122 124.864C274.978 124.626 274.735 124.417 274.525 124.543C274.835 124.263 275.199 124.068 275.574 123.97" stroke="white" stroke-width="2" stroke-miterlimit="10"/>
<path d="M281.725 122.029C281.769 122.294 281.703 122.601 281.56 122.797C284.055 123.621 286.584 124.445 289.167 124.431C290.261 124.431 291.343 124.263 292.436 124.11C294.247 123.844 296.058 123.593 297.869 123.328C297.703 123.328 297.581 123.565 297.637 123.761" stroke="white" stroke-width="2" stroke-miterlimit="10"/>
</svg>
