<svg width="291" height="94" viewBox="0 0 291 94" fill="none" xmlns="http://www.w3.org/2000/svg">
<g clip-path="url(#clip0_362_410)">
<path d="M3.49078 22.3491C4.57826 25.2198 6.17323 27.892 7.06393 30.8357C9.9121 40.3036 4.98218 50.45 6.08002 60.2832C6.30787 62.3813 6.81537 64.4482 6.89822 66.5463C7.03286 70.1268 5.93502 73.6238 5.29289 77.152C4.66112 80.6803 4.54719 84.5634 6.44251 87.6011C9.24926 92.0793 15.4324 93.0918 20.5901 92.048C25.7479 91.0041 30.4811 88.3944 35.6181 87.2879C40.517 86.2336 46.5447 86.0353 48.9993 81.6406C49.8797 80.0644 50.0868 78.2168 50.2836 76.4317C51.3711 66.4628 52.4689 56.4835 53.5564 46.5146C53.9396 43.0072 54.3228 39.4581 53.8257 35.9611C52.9868 30.0737 49.6725 24.7918 45.623 20.4702C43.6344 18.3511 41.4284 16.3991 38.8495 15.063C36.3017 13.7372 33.4224 13.0274 31.1232 11.305C28.2232 9.14424 26.3901 5.49071 23.0137 4.22764C21.1391 3.52825 19.0366 3.68483 17.1206 3.1107C12.7499 1.79543 6.24573 -0.250542 3.19042 4.78088C0.352612 9.4574 1.68866 17.6309 3.49078 22.3491Z" stroke="white" stroke-width="2" stroke-miterlimit="10"/>
<path d="M58.7034 51.7548C58.1545 53.1745 58.3409 54.7612 58.4238 56.2852C58.5377 58.2685 58.4652 60.2623 58.2166 62.2352C58.082 63.3208 57.8956 64.49 58.4134 65.4608C58.983 66.5359 60.2466 67.037 61.4273 67.2771C63.4262 67.6842 65.5183 67.6111 67.4758 67.0788C68.004 66.9326 68.5632 66.7238 68.8429 66.2437C69.0397 65.8992 69.05 65.4816 69.0397 65.0745C68.9672 61.1183 68.0143 57.0681 65.7979 53.759C64.3272 51.5565 60.5987 46.8591 58.693 51.7444L58.7034 51.7548Z" stroke="white" stroke-width="2" stroke-miterlimit="10"/>
<path d="M90.0847 60.993C89.774 62.2978 89.4529 63.801 90.2504 64.8762C91.9386 65.0536 93.6164 65.2206 95.3046 65.3981C95.5325 65.419 95.7707 65.4398 95.9571 65.3146C96.1953 65.158 96.2471 64.8448 96.2782 64.563C96.6096 61.7446 98.9192 48.237 94.155 47.8716C90.2504 47.5689 90.6751 58.4668 90.0847 61.0034V60.993Z" stroke="white" stroke-width="2" stroke-miterlimit="10"/>
<path d="M65.0939 51.8801C64.7417 51.473 65.0214 50.7736 65.4978 50.5335C65.9742 50.2934 66.5542 50.3769 67.072 50.5335C69.8788 51.3059 72.1573 53.5398 73.4312 56.1808C74.7051 58.8218 75.0469 61.8385 74.8605 64.7614C74.8087 65.5234 74.6637 66.3898 74.0009 66.7656C73.5866 67.0057 73.0791 66.9639 72.6027 66.9222C71.3495 66.8073 70.1066 66.7029 68.8534 66.5881C69.2677 66.8073 69.4852 67.371 69.3091 67.8199" stroke="white" stroke-width="2" stroke-miterlimit="10"/>
<path d="M124.698 62.7467C125.009 62.9033 125.371 62.8824 125.723 62.8615C126.894 62.7885 128.064 62.7258 129.234 62.6528C129.535 62.6319 129.845 62.611 130.094 62.4649C130.663 62.1413 130.757 61.3584 130.746 60.7007C130.736 58.0284 130.353 49.3644 126.065 51.1807C124.035 52.0367 123.869 54.5211 123.88 56.3478C123.88 57.3812 123.662 62.2457 124.687 62.7467H124.698Z" stroke="white" stroke-width="2" stroke-miterlimit="10"/>
<path d="M150.259 37.3599C149.814 36.9006 149.068 37.4434 148.716 37.9862C146.769 40.9717 146.427 44.6983 146.147 48.2474C145.94 50.8049 145.733 53.3728 145.526 55.9303C145.474 56.6297 145.453 57.4334 145.982 57.8823C146.313 58.1746 146.79 58.2268 147.225 58.2685C150.083 58.5504 152.952 58.6965 155.831 58.7278C156.535 58.7278 157.302 58.707 157.83 58.2477C158.483 57.6735 158.503 56.661 158.472 55.7841C158.41 54.0722 158.348 52.3603 158.286 50.6483C158.151 47.0783 157.892 43.1743 155.469 40.575C154.485 39.5207 153.221 38.7691 151.978 38.0384C151.046 37.4956 149.793 36.9737 148.996 37.694C148.032 38.5604 148.788 40.1575 148.612 41.4414" stroke="white" stroke-width="2" stroke-miterlimit="10"/>
<path d="M181.723 51.6609C181.485 50.7736 181.185 49.8654 180.563 49.1974C179.952 48.5502 179.103 48.2057 178.285 47.8821C177.705 49.1243 177.487 50.5126 177.28 51.8801C176.742 55.4083 176.203 58.9262 175.654 62.4544C175.416 64.0098 181.682 63.4774 182.676 61.6715C183.981 59.302 182.365 54.0096 181.723 51.6713V51.6609Z" stroke="white" stroke-width="2" stroke-miterlimit="10"/>
<path d="M193.117 55.638C193.075 53.0179 192.837 50.4082 192.392 47.8299C190.6 47.3184 188.694 48.6545 187.917 50.3665C187.141 52.0784 187.192 54.0304 187.265 55.9094C187.348 58.1224 187.441 60.3249 187.524 62.5379C187.524 62.7676 187.545 63.0077 187.658 63.206C187.824 63.4774 188.145 63.6027 188.446 63.7175C189.44 64.062 190.465 64.4169 191.511 64.2916C192.557 64.1664 193.593 63.4148 193.697 62.3605C193.748 61.7759 193.51 61.2018 193.324 60.6485C192.609 58.5921 192.526 56.3165 193.065 54.1975" stroke="white" stroke-width="2" stroke-miterlimit="10"/>
<path d="M209.408 58.3729C208.848 55.6693 207.347 53.0283 204.913 51.7652C204.664 51.64 204.374 51.5147 204.105 51.5773C203.836 51.64 203.628 51.8696 203.463 52.0888C200.262 56.139 200.325 61.8176 200.552 66.9848C200.563 67.277 200.594 67.5902 200.801 67.7885C200.956 67.9451 201.184 67.9869 201.402 68.0286C203.898 68.4879 207.989 69.7719 209.573 66.8804C210.599 65.0119 209.822 60.2623 209.428 58.3624L209.408 58.3729Z" stroke="white" stroke-width="2" stroke-miterlimit="10"/>
<path d="M226.984 52.3707C227.232 51.0659 226.051 49.7924 224.746 49.6462C223.442 49.5001 222.157 50.2621 221.339 51.2955C220.521 52.3289 220.086 53.6129 219.692 54.8864C218.18 59.7821 217.144 64.824 216.606 69.9285C216.575 70.2103 216.554 70.5339 216.751 70.7427C216.937 70.9411 217.227 70.9515 217.497 70.9619C219.319 70.9933 221.142 71.0246 222.955 71.0559C222.975 71.3273 222.996 71.6091 223.017 71.8805" stroke="white" stroke-width="2" stroke-miterlimit="10"/>
<path d="M238.945 48.9573C239.204 44.9384 239.846 40.9612 240.489 36.9841C240.924 34.3014 241.359 31.5978 242.249 29.0299C245.222 20.3867 253.217 14.0295 262.031 11.8374C263.802 11.399 265.646 11.1067 267.437 11.4616C269.271 11.827 270.907 12.85 272.409 13.9774C282.124 21.2635 287.623 33.7481 286.909 45.93C286.691 49.7193 285.914 53.5085 286.297 57.2873C286.577 60.0535 287.478 62.7258 287.696 65.5025C287.903 68.1017 287.499 70.7323 287.82 73.321C288.162 76.1186 289.332 78.7805 289.446 81.5989C289.57 84.4173 288.151 87.6637 285.396 88.1752C282.559 86.2963 278.954 86.1606 275.557 86.1919C269.032 86.2441 262.528 86.6825 256.034 87.2671C251.591 87.6637 245.108 90.3674 243.554 85.0228C240.281 73.8012 238.21 60.6381 238.956 48.9364L238.945 48.9573Z" stroke="white" stroke-width="2" stroke-miterlimit="10"/>
<path d="M236.439 71.8283C235.611 68.6863 235.072 65.4712 234.834 62.2352C234.689 60.1997 234.658 58.1328 234.13 56.1495C233.602 54.1766 232.504 52.2558 230.733 51.2642C230.163 50.951 229.511 50.7318 228.879 50.8362C227.336 51.0972 226.714 52.9448 226.383 54.4897C225.275 59.7717 224.166 65.0536 223.048 70.3251C223.214 70.1059 223.379 69.8867 223.535 69.6571C223.783 70.1581 224.156 70.5965 224.612 70.9097" stroke="white" stroke-width="2" stroke-miterlimit="10"/>
<path d="M225.305 71.0454C224.798 71.0037 224.301 70.9515 223.793 70.9097C222.706 70.8053 221.587 70.7114 220.562 71.0767C219.536 71.4421 218.625 72.392 218.666 73.4881C218.708 74.4693 219.505 75.294 220.417 75.6593C221.328 76.0247 222.333 76.0351 223.306 76.0247C225.761 76.0247 239.546 77.3608 239.877 74.7407C240.292 71.536 227.604 71.2751 225.305 71.0559V71.0454Z" stroke="white" stroke-width="2" stroke-miterlimit="10"/>
</g>
<defs>
<clipPath id="clip0_362_410">
<rect width="291" height="94" fill="white"/>
</clipPath>
</defs>
</svg>
